<svg width="89" height="89" viewBox="0 0 89 89" fill="none" xmlns="http://www.w3.org/2000/svg">
<path d="M50.9972 42.9249L53.5732 34.5977L39.7474 40.4135L50.9972 42.9249ZM80.9965 27.1957C70.4641 16.4232 44.9321 18.4058 34.8888 20.9503C23.15 23.9904 20.0196 33.0446 20.3457 47.7164C20.4761 56.1428 24.0956 63.6108 31.1063 66.1553C45.3886 71.178 57.6492 70.4841 70.5294 57.9933C63.9425 50.7895 58.4644 48.2781 49.4646 48.939C40.7257 49.3686 35.7693 47.9807 29.5737 41.1075C37.1388 33.7385 41.7691 30.1697 50.8994 29.2114C61.1057 28.154 70.2033 32.5159 74.1488 36.5804C77.8335 40.4135 79.6922 49.1703 78.8118 59.7777C78.127 68.3693 75.4206 73.4251 69.1924 75.2425C61.1709 77.7539 49.4972 78.9766 38.7692 78.547C26.0847 78.0183 19.4327 75.4078 17.574 73.4251C13.661 68.9971 10.7915 59.6124 10.1394 48.8399C9.48722 38.0674 11.1502 27.8896 14.4436 22.3381C17.7044 16.7867 29.7694 12.8543 47.5407 11.7308C62.3774 10.8717 76.1379 11.9952 76.301 11.9952L75.3879 0C75.3879 0 43.6604 3.73404 38.8018 4.16362C27.0303 5.28713 11.1502 7.89766 5.86773 16.9519C-3.62119 33.1107 -1.2082 67.5431 10.2698 80.3975C20.5087 91.9631 56.1166 90.0465 72.0619 85.1889C79.2357 83.008 87.3551 77.0269 88.7572 60.6699C89.6703 49.8973 88.2029 34.6638 80.9965 27.1957ZM49.1059 56.0436L60.3557 58.555L46.5299 64.3709L49.1059 56.0436Z" fill="#016B6B"/>
</svg>
