<svg width="89" height="88" viewBox="0 0 89 88" fill="none" xmlns="http://www.w3.org/2000/svg">
<path d="M80.9969 36.1691C84.8632 35.3395 88.737 37.7983 88.9417 41.7473C89.3041 48.7379 87.9758 55.7497 85.0211 62.1861C81.0648 70.8043 74.4035 77.9314 66.026 82.5096C57.6484 87.0878 48.0012 88.873 38.5162 87.6004C29.0312 86.3277 20.214 82.065 13.3733 75.4449C6.53269 68.8248 2.03322 60.2002 0.542772 50.8512C-0.947671 41.5023 0.650361 31.9273 5.09968 23.5475C9.54899 15.1677 16.6124 8.42984 25.2416 4.3339C31.7131 1.26206 38.8066 -0.200985 45.9126 0.0221214C49.8489 0.145711 52.3829 3.95154 51.6223 7.81563V7.81563C50.8663 11.6566 47.1219 14.0748 43.2107 14.2405C39.1601 14.4121 35.1613 15.3915 31.4625 17.1471C25.6209 19.92 20.8391 24.4813 17.827 30.1542C14.815 35.8271 13.7332 42.3091 14.7421 48.6381C15.7511 54.9671 18.7972 60.8057 23.4281 65.2873C28.059 69.769 34.028 72.6547 40.4491 73.5163C46.8702 74.3778 53.4011 73.1693 59.0725 70.0699C64.7439 66.9706 69.2534 62.1458 71.9317 56.3115C73.5971 52.6837 74.4992 48.7859 74.613 44.8512C74.7281 40.8723 77.1049 37.0042 80.9969 36.1691V36.1691Z" fill="url(#paint0_linear)"/>
<path d="M83.6813 23.7117C83.6813 27.57 80.518 30.6978 76.6158 30.6978C72.7136 30.6978 69.5503 27.57 69.5503 23.7117C69.5503 19.8534 72.7136 16.7256 76.6158 16.7256C80.518 16.7256 83.6813 19.8534 83.6813 23.7117Z" fill="#FF6205"/>
<defs>
<linearGradient id="paint0_linear" x1="7.48598" y1="19.7383" x2="56.6371" y2="68.2001" gradientUnits="userSpaceOnUse">
<stop offset="0.348958" stop-color="#313F6B"/>
<stop offset="1" stop-color="#FF6104"/>
</linearGradient>
</defs>
</svg>
