<svg width="42" height="71" viewBox="0 0 42 71" fill="none" xmlns="http://www.w3.org/2000/svg">
<path d="M40.0101 32.2704L8.85743 1.11835C8.1369 0.397255 7.17507 0 6.14949 0C5.12391 0 4.16207 0.397255 3.44155 1.11835L1.14737 3.41196C-0.345464 4.9065 -0.345464 7.33556 1.14737 8.82783L27.307 34.9875L1.11835 61.1762C0.397824 61.8973 0 62.8585 0 63.8835C0 64.9097 0.397824 65.871 1.11835 66.5926L3.41253 68.8857C4.13362 69.6067 5.09488 70.004 6.12046 70.004C7.14604 70.004 8.10788 69.6067 8.8284 68.8857L40.0101 37.7051C40.7323 36.9817 41.129 36.0159 41.1267 34.9892C41.129 33.9585 40.7323 32.9932 40.0101 32.2704Z" fill="black"/>
</svg>
