<svg width="40" height="41" viewBox="0 0 40 41" fill="none" xmlns="http://www.w3.org/2000/svg">
<path d="M11.3564 1.18441H11.8564V1.1748H27.7612C33.7258 1.1748 38.6083 6.1595 38.6083 12.2868V29.0608C38.6083 35.1884 33.7255 40.1729 27.7706 40.1729H11.3564C5.39053 40.1729 0.5 35.1964 0.5 29.08V12.2964C0.5 6.16965 5.39133 1.18441 11.3564 1.18441ZM2.50833 12.3051V12.306V29.0897C2.50833 34.0758 6.43588 38.1064 11.3564 38.1064H27.7706C32.6738 38.1064 36.5999 34.0743 36.5999 29.0704V12.2964C36.5999 7.2922 32.6735 3.26045 27.7612 3.26045H11.3564C6.44367 3.26045 2.51825 7.29253 2.50833 12.3051ZM30.5927 8.3745C30.5927 7.78457 31.0467 7.33649 31.5968 7.33649C32.147 7.33649 32.601 7.78457 32.601 8.3745C32.601 8.96443 32.147 9.41252 31.5968 9.41252C31.0467 9.41252 30.5927 8.96443 30.5927 8.3745ZM9.53438 20.6786C9.53438 15.0229 14.0591 10.4125 19.5635 10.4125C25.068 10.4125 29.5927 15.0229 29.5927 20.6786C29.5927 26.3344 25.068 30.9448 19.5635 30.9448C14.0591 30.9448 9.53438 26.3344 9.53438 20.6786ZM27.5843 20.6786C27.5843 16.145 24.0242 12.4886 19.5635 12.4886C15.1029 12.4886 11.5427 16.145 11.5427 20.6786C11.5427 25.2122 15.1029 28.8687 19.5635 28.8687C24.0242 28.8687 27.5843 25.2122 27.5843 20.6786Z" fill="#070707" stroke="#070707"/>
</svg>
