<svg width="21" height="20" viewBox="0 0 21 20" fill="none" xmlns="http://www.w3.org/2000/svg">
<path d="M9.47395 0.918174C9.7738 -0.00210298 11.0757 -0.00210218 11.3756 0.918174L13.1267 6.29257C13.2608 6.7042 13.6445 6.98278 14.0775 6.98278H19.7382C20.7076 6.98278 21.1099 8.22381 20.3249 8.79257L15.7501 12.1072C15.3986 12.3619 15.2515 12.8141 15.386 13.2268L17.1345 18.5934C17.4346 19.5143 16.3813 20.2812 15.597 19.713L11.0115 16.3907C10.6614 16.137 10.1881 16.137 9.83804 16.3907L5.25249 19.713C4.46823 20.2812 3.41494 19.5143 3.71497 18.5934L5.46354 13.2268C5.59799 12.8141 5.45091 12.3619 5.09945 12.1072L0.524581 8.79257C-0.260426 8.22381 0.141905 6.98278 1.1113 6.98278H6.77206C7.20498 6.98278 7.58874 6.7042 7.72286 6.29257L9.47395 0.918174Z" fill="#E5E5E5"/>
</svg>
