<svg width="40" height="41" viewBox="0 0 40 41" fill="none" xmlns="http://www.w3.org/2000/svg">
<path d="M39.3823 1.7699C38.8937 1.06364 38.1619 0.674805 37.3214 0.674805C36.8646 0.674805 36.3806 0.788427 35.8832 1.01315L2.02398 16.2901C0.227113 17.1006 -0.0148908 18.3169 0.000673129 18.9698C0.016237 19.6226 0.316224 20.8209 2.14911 21.5102C2.16009 21.5142 2.17108 21.5181 2.18206 21.5217L9.20536 23.8973L13.0036 36.7348C13.5215 38.485 14.6839 39.5721 16.0376 39.5721C16.8912 39.5721 17.7307 39.1494 18.4656 38.3501L22.8098 33.6223L29.1107 39.619C29.1113 39.6197 29.1122 39.6201 29.1128 39.6208L29.1727 39.6778C29.1782 39.6829 29.184 39.6883 29.1894 39.6933C29.8898 40.3354 30.6543 40.6744 31.401 40.6748H31.4014C32.8604 40.6748 34.0222 39.3983 34.3606 37.4231L39.9084 5.04474C40.1312 3.74512 39.9444 2.58221 39.3823 1.7699V1.7699ZM11.5549 23.4461L25.105 15.2642L16.6678 25.8607C16.5296 26.0342 16.4316 26.2466 16.3834 26.4778L14.7565 34.2669L11.5549 23.4461ZM16.8778 36.3121C16.8216 36.373 16.7652 36.4275 16.7087 36.4776L18.2181 29.252L20.9638 31.8653L16.8778 36.3121ZM37.6114 4.49467L32.0636 36.8733C32.0102 37.1832 31.8396 37.9042 31.401 37.9042C31.1844 37.9042 30.9122 37.7646 30.6335 37.5111L23.4937 30.7161C23.4927 30.715 23.4915 30.7139 23.4903 30.7132L19.242 26.6697L31.4432 11.3459C31.8338 10.8553 31.8692 10.104 31.5271 9.5651C31.1847 9.0262 30.5643 8.85667 30.0568 9.16327L9.98905 21.2808L2.87023 18.8734L36.719 3.6012C37.005 3.47207 37.2046 3.44502 37.3214 3.44502C37.3932 3.44502 37.5207 3.45512 37.568 3.52401C37.6303 3.61383 37.7096 3.92007 37.6114 4.49467V4.49467Z" fill="black"/>
</svg>
